<?xml version="1.0" encoding="UTF-8"?>
<svg xmlns="http://www.w3.org/2000/svg" viewBox="0 0 320 120" width="640" height="240" role="img" aria-labelledby="title desc">
  <title id="title">Bella</title>
  <desc id="desc">Bella logo: belief hypergraph mark and wordmark.</desc>

  <defs>
    <radialGradient id="haloIndigo" cx="50%" cy="50%" r="50%">
      <stop offset="0%"   stop-color="rgb(99,102,241)" stop-opacity="0.60"/>
      <stop offset="45%"  stop-color="rgb(99,102,241)" stop-opacity="0.28"/>
      <stop offset="100%" stop-color="rgb(99,102,241)" stop-opacity="0"/>
    </radialGradient>
    <radialGradient id="haloTeal" cx="50%" cy="50%" r="50%">
      <stop offset="0%"   stop-color="rgb(16,185,129)" stop-opacity="0.60"/>
      <stop offset="45%"  stop-color="rgb(16,185,129)" stop-opacity="0.28"/>
      <stop offset="100%" stop-color="rgb(16,185,129)" stop-opacity="0"/>
    </radialGradient>
    <radialGradient id="haloAmber" cx="50%" cy="50%" r="50%">
      <stop offset="0%"   stop-color="rgb(245,158,11)" stop-opacity="0.60"/>
      <stop offset="45%"  stop-color="rgb(245,158,11)" stop-opacity="0.28"/>
      <stop offset="100%" stop-color="rgb(245,158,11)" stop-opacity="0"/>
    </radialGradient>
  </defs>

  <!-- MARK -->
  <g>
    <g fill="none" stroke-linecap="round" stroke-width="1.0">
      <line x1="82" y1="25" x2="58" y2="87" stroke="rgb(99,102,241)" stroke-opacity="0.32"/>
      <line x1="30" y1="70" x2="58" y2="87" stroke="rgb(99,102,241)" stroke-opacity="0.52"/>
      <line x1="22" y1="37" x2="85" y2="50" stroke="rgb(16,185,129)" stroke-opacity="0.32"/>
      <line x1="85" y1="50" x2="68" y2="73" stroke="rgb(16,185,129)" stroke-opacity="0.54"/>
      <line x1="55" y1="20" x2="42" y2="50" stroke="rgb(245,158,11)" stroke-opacity="0.52"/>
      <line x1="68" y1="73" x2="58" y2="87" stroke="rgb(148,163,184)" stroke-opacity="0.68"/>
      <line x1="42" y1="50" x2="30" y2="70" stroke="rgb(148,163,184)" stroke-opacity="0.65"/>
      <line x1="82" y1="25" x2="85" y2="50" stroke="rgb(148,163,184)" stroke-opacity="0.62"/>
      <line x1="55" y1="20" x2="82" y2="25" stroke="rgb(148,163,184)" stroke-opacity="0.60"/>
      <line x1="22" y1="37" x2="30" y2="70" stroke="rgb(148,163,184)" stroke-opacity="0.50"/>
      <line x1="42" y1="50" x2="68" y2="73" stroke="rgb(148,163,184)" stroke-opacity="0.50"/>
    </g>
    <g>
      <circle cx="55" cy="20" r="17" fill="url(#haloAmber)"/>
      <circle cx="82" cy="25" r="12" fill="url(#haloIndigo)"/>
      <circle cx="22" cy="37" r="12" fill="url(#haloTeal)"/>
      <circle cx="42" cy="50" r="13" fill="url(#haloAmber)"/>
      <circle cx="85" cy="50" r="16" fill="url(#haloTeal)"/>
      <circle cx="30" cy="70" r="12" fill="url(#haloIndigo)"/>
      <circle cx="68" cy="73" r="12" fill="url(#haloTeal)"/>
      <circle cx="58" cy="87" r="16" fill="url(#haloIndigo)"/>
    </g>
    <g>
      <circle cx="55" cy="20" r="4.4" fill="rgb(245,158,11)"/>
      <circle cx="82" cy="25" r="3.2" fill="rgb(99,102,241)"/>
      <circle cx="22" cy="37" r="3.2" fill="rgb(16,185,129)"/>
      <circle cx="42" cy="50" r="3.4" fill="rgb(245,158,11)"/>
      <circle cx="85" cy="50" r="4.2" fill="rgb(16,185,129)"/>
      <circle cx="30" cy="70" r="3.2" fill="rgb(99,102,241)"/>
      <circle cx="68" cy="73" r="3.2" fill="rgb(16,185,129)"/>
      <circle cx="58" cy="87" r="4.2" fill="rgb(99,102,241)"/>
    </g>
    <g fill="white" fill-opacity="0.75">
      <circle cx="53.6" cy="18.6" r="1.5"/>
      <circle cx="80.9" cy="23.9" r="1.0"/>
      <circle cx="20.9" cy="35.9" r="1.0"/>
      <circle cx="40.9" cy="48.9" r="1.1"/>
      <circle cx="83.7" cy="48.7" r="1.4"/>
      <circle cx="28.9" cy="68.9" r="1.0"/>
      <circle cx="66.9" cy="71.9" r="1.0"/>
      <circle cx="56.7" cy="85.7" r="1.4"/>
    </g>
  </g>

  <!-- WORDMARK -->
  <text x="128" y="78"
        font-family="'Space Grotesk', Inter, 'Helvetica Neue', system-ui, -apple-system, sans-serif"
        font-size="62"
        font-weight="600"
        letter-spacing="-1.5"
        fill="rgb(30,27,75)">Bella</text>
</svg>
