<?xml version="1.0" encoding="UTF-8" standalone="no"?>
<!DOCTYPE svg PUBLIC "-//W3C//DTD SVG 1.1//EN"
 "http://www.w3.org/Graphics/SVG/1.1/DTD/svg11.dtd">
<!-- Generated by graphviz version 2.43.0 (0)
 -->
<!-- Title: Bella Pages: 1 -->
<svg width="1791pt" height="973pt"
 viewBox="0.00 0.00 859.63 467.03" xmlns="http://www.w3.org/2000/svg" xmlns:xlink="http://www.w3.org/1999/xlink">
<g id="graph0" class="graph" transform="scale(2.08 2.08) rotate(0) translate(36 431.03)">
<title>Bella</title>
<polygon fill="white" stroke="transparent" points="-36,36 -36,-431.03 823.63,-431.03 823.63,36 -36,36"/>
<text text-anchor="middle" x="393.81" y="-376.63" font-family="Helvetica,sans-Serif" font-size="18.00">Bella — same session, thirty days on</text>
<g id="clust1" class="cluster">
<title>cluster_5f72c8</title>
<polygon fill="white" stroke="#ff9da7" stroke-dasharray="1,5" points="0,-69 0,-367.03 787.63,-367.03 787.63,-69 0,-69"/>
<text text-anchor="middle" x="393.81" y="-355.03" font-family="Helvetica,sans-Serif" font-size="10.00" fill="#555555">integration_test_flaked</text>
</g>
<g id="clust2" class="cluster">
<title>cluster_9748e9</title>
<polygon fill="white" stroke="#f28e2b" stroke-dasharray="1,5" points="345,0 345,-36.77 705.62,-36.77 705.62,0 345,0"/>
<text text-anchor="middle" x="525.31" y="-24.77" font-family="Helvetica,sans-Serif" font-size="10.00" fill="#555555">__self__</text>
</g>
<!-- 999cd91ffd59 -->
<g id="node1" class="node">
<title>999cd91ffd59</title>
<g id="a_node1"><a xlink:title="m=0.77 v=2 field=integration_test_flaked">
<ellipse fill="#ff9da7" fill-opacity="0.854902" stroke="#ff9da7" stroke-width="4.1" cx="540.16" cy="-88.09" rx="195.32" ry="19.18"/>
<text text-anchor="middle" x="540.16" y="-84.39" font-family="Helvetica,sans-Serif" font-weight="bold" font-size="14.00" fill="#222222">so the real fix is retry jitter, no…</text>
</a>
</g>
</g>
<!-- ebf568287615 -->
<g id="node2" class="node">
<title>ebf568287615</title>
<g id="a_node2"><a xlink:title="m=0.67 v=1 field=integration_test_flaked">
<ellipse fill="#ff9da7" fill-opacity="0.792157" stroke="#ff9da7" stroke-width="3.7" cx="547.61" cy="-347.94" rx="179.71" ry="19.18"/>
<text text-anchor="middle" x="547.61" y="-344.24" font-family="Helvetica-normal" font-size="14.00" fill="#222222">the integration test flaked again, …</text>
</a>
</g>
</g>
<!-- c688816c4e46 -->
<g id="node5" class="node">
<title>c688816c4e46</title>
<g id="a_node5"><a xlink:title="m=0.52 v=1 field=integration_test_flaked">
<ellipse fill="#ff9da7" fill-opacity="0.701961" stroke="#ff9da7" stroke-width="3.1" cx="582.53" cy="-302.46" rx="165.43" ry="18.27"/>
<text text-anchor="middle" x="582.53" y="-299.06" font-family="Helvetica-normal" font-size="13.00" fill="#222222">ci load spikes rate&#45;limit us and th…</text>
</a>
</g>
</g>
<!-- ebf568287615&#45;&gt;c688816c4e46 -->
<g id="edge2" class="edge">
<title>ebf568287615&#45;&gt;c688816c4e46</title>
<path fill="none" stroke="#1f5f9f" stroke-width="2.5" d="M562.42,-328.65C562.54,-328.5 562.66,-328.34 562.78,-328.18"/>
<polygon fill="#1f5f9f" stroke="#1f5f9f" stroke-width="2.5" points="568.25,-321.05 565.73,-331.73 565.8,-325.48 562.76,-329.44 562.16,-328.98 561.57,-328.53 564.61,-324.56 558.59,-326.24 568.25,-321.05 568.25,-321.05"/>
</g>
<!-- e64d445b3717 -->
<g id="node3" class="node">
<title>e64d445b3717</title>
<g id="a_node3"><a xlink:title="m=0.67 v=1 field=integration_test_flaked">
<ellipse fill="#ff9da7" fill-opacity="0.792157" stroke="#ff9da7" stroke-width="3.7" cx="179.61" cy="-224.87" rx="179.71" ry="19.18"/>
<text text-anchor="middle" x="179.61" y="-221.17" font-family="Helvetica-normal" font-size="14.00" fill="#222222">that&#39;s a bandaid, not a fix — don&#39;t…</text>
</a>
</g>
</g>
<!-- f5ee8fa98b2c -->
<g id="node4" class="node">
<title>f5ee8fa98b2c</title>
<g id="a_node4"><a xlink:title="m=0.52 v=1 field=integration_test_flaked">
<ellipse fill="#ff9da7" fill-opacity="0.701961" stroke="#ff9da7" stroke-width="3.1" cx="484.02" cy="-179.38" rx="173.48" ry="18.27"/>
<text text-anchor="middle" x="484.02" y="-175.98" font-family="Helvetica-normal" font-size="13.00" fill="#222222">i&#39;ll bump the sync timeout from 2s …</text>
</a>
</g>
</g>
<!-- f5ee8fa98b2c&#45;&gt;e64d445b3717 -->
<g id="edge1" class="edge">
<title>f5ee8fa98b2c&#45;&gt;e64d445b3717</title>
<path fill="none" stroke="#c0392b" stroke-width="2.5" stroke-dasharray="5,2" d="M383.5,-194.4C353.29,-198.92 320.01,-203.89 289.25,-208.49"/>
<polygon fill="#c0392b" stroke="#c0392b" stroke-width="2.5" points="285.66,-214.08 284.18,-204.19 286.16,-203.89 287.64,-213.78 285.66,-214.08"/>
<polyline fill="none" stroke="#c0392b" stroke-width="2.5" points="283.93,-209.28 288.88,-208.54 "/>
</g>
<!-- 0d2f6ddbd4df -->
<g id="node6" class="node">
<title>0d2f6ddbd4df</title>
<g id="a_node6"><a xlink:title="m=0.52 v=1 field=integration_test_flaked">
<ellipse fill="#ff9da7" fill-opacity="0.701961" stroke="#ff9da7" stroke-width="3.1" cx="601.66" cy="-248.38" rx="185.94" ry="18.27"/>
<text text-anchor="middle" x="601.66" y="-244.98" font-family="Helvetica-normal" font-size="13.00" fill="#222222">we exceed the 2s window before the …</text>
</a>
</g>
</g>
<!-- c688816c4e46&#45;&gt;0d2f6ddbd4df -->
<g id="edge3" class="edge">
<title>c688816c4e46&#45;&gt;0d2f6ddbd4df</title>
<path fill="none" stroke="#1f5f9f" stroke-width="2.5" d="M589.11,-283.85C589.96,-281.44 590.85,-278.94 591.74,-276.42"/>
<polygon fill="#1f5f9f" stroke="#1f5f9f" stroke-width="2.5" points="595.13,-266.85 596.04,-277.77 594.17,-271.81 592.5,-276.52 591.79,-276.27 591.09,-276.02 592.75,-271.31 587.55,-274.77 595.13,-266.85 595.13,-266.85"/>
</g>
<!-- 1920a598a689 -->
<g id="node7" class="node">
<title>1920a598a689</title>
<g id="a_node7"><a xlink:title="m=0.57 v=1 field=__self__">
<ellipse fill="#f28e2b" fill-opacity="0.725490" stroke="#f28e2b" stroke-width="3.3" cx="525.31" cy="-18.38" rx="180.12" ry="18.27"/>
<text text-anchor="middle" x="525.31" y="-14.98" font-family="Helvetica-normal" font-size="13.00" fill="#222222">i reach for timeout bumps when retr…</text>
</a>
</g>
</g>
</g>
</svg>
